<?xml version="1.0" standalone="no"?>
<!DOCTYPE svg PUBLIC "-//W3C//DTD SVG 20010904//EN"
 "http://www.w3.org/TR/2001/REC-SVG-20010904/DTD/svg10.dtd">
<svg version="1.0" xmlns="http://www.w3.org/2000/svg"
 width="512.000000pt" height="512.000000pt" viewBox="0 0 512.000000 512.000000"
 preserveAspectRatio="xMidYMid meet">

<g transform="translate(0.000000,512.000000) scale(0.100000,-0.100000)"
fill="#000000" stroke="none">
<path d="M1675 5106 c-41 -19 -1121 -1104 -1135 -1139 -7 -19 -10 -543 -10
-1641 l0 -1613 22 -33 c13 -18 36 -43 51 -54 28 -21 34 -21 1008 -26 l979 -5
44 -75 c341 -581 1143 -694 1630 -231 467 445 434 1190 -70 1591 -39 31 -101
73 -138 94 l-66 37 0 1503 0 1503 -23 34 c-49 74 34 69 -1177 69 -894 -1
-1090 -3 -1115 -14z m2015 -1643 l0 -1358 -153 -1 c-189 -2 -297 -27 -462
-108 -372 -184 -594 -552 -583 -969 l3 -127 -832 0 -833 0 0 1430 0 1429 473
3 c451 3 473 4 505 23 18 11 43 36 55 55 22 34 22 42 25 508 l3 472 899 0 900
0 0 -1357z m-2110 872 l0 -265 -267 0 -268 0 265 265 c146 146 266 265 267
265 2 0 3 -119 3 -265z m2161 -2556 c263 -73 474 -293 533 -556 21 -93 21
-257 0 -342 -100 -409 -513 -659 -919 -556 -216 55 -421 232 -508 440 -155
370 19 808 387 975 64 29 151 54 226 63 65 9 207 -3 281 -24z"/>
<path d="M3470 1561 c-20 -10 -44 -36 -57 -61 -22 -41 -23 -54 -23 -257 0
-241 5 -263 66 -309 37 -28 40 -29 183 -32 136 -3 149 -2 190 20 64 33 86 68
86 132 -1 38 -7 61 -24 84 -31 44 -56 56 -131 62 l-65 5 -5 142 c-4 123 -8
145 -26 170 -44 60 -129 79 -194 44z"/>
</g>
</svg>
