<?xml version="1.0" standalone="no"?>
<!DOCTYPE svg PUBLIC "-//W3C//DTD SVG 20010904//EN"
 "http://www.w3.org/TR/2001/REC-SVG-20010904/DTD/svg10.dtd">
<svg version="1.0" xmlns="http://www.w3.org/2000/svg"
 width="24.000000pt" height="24.000000pt" viewBox="0 0 24.000000 24.000000"
 preserveAspectRatio="xMidYMid meet">

<g transform="translate(0.000000,24.000000) scale(0.100000,-0.100000)"
fill="#000000" stroke="none">
<path d="M64 179 c-26 -27 -43 -49 -36 -49 8 0 12 -17 12 -50 l0 -50 80 0 80
0 0 50 c0 32 4 50 12 50 13 0 -57 76 -83 90 -12 7 -28 -3 -65 -41z m88 -6 c23
-22 28 -35 28 -75 l0 -48 -60 0 -60 0 0 47 c0 37 6 53 27 75 15 15 29 28 32
28 3 0 18 -12 33 -27z"/>
</g>
</svg>
