<?xml version="1.0" standalone="no"?>
<!DOCTYPE svg PUBLIC "-//W3C//DTD SVG 20010904//EN"
 "http://www.w3.org/TR/2001/REC-SVG-20010904/DTD/svg10.dtd">
<svg version="1.0" xmlns="http://www.w3.org/2000/svg"
 width="24.000000pt" height="24.000000pt" viewBox="0 0 24.000000 24.000000"
 preserveAspectRatio="xMidYMid meet">

<g transform="translate(0.000000,24.000000) scale(0.100000,-0.100000)"
fill="#000000" stroke="none">
<path d="M95 180 c-28 -29 -28 -30 -7 -30 18 0 22 -6 22 -35 0 -19 5 -35 10
-35 6 0 10 15 10 34 0 30 4 35 26 38 l26 3 -29 28 -29 27 -29 -30z"/>
<path d="M20 75 l0 -45 100 0 100 0 0 45 c0 25 -4 45 -10 45 -5 0 -10 -16 -10
-35 l0 -35 -80 0 -80 0 0 35 c0 19 -4 35 -10 35 -5 0 -10 -20 -10 -45z"/>
</g>
</svg>
